<?xml version="1.0" encoding="UTF-8" standalone="no" ?>
<!DOCTYPE svg PUBLIC "-//W3C//DTD SVG 1.1//EN" "http://www.w3.org/Graphics/SVG/1.1/DTD/svg11.dtd">
<svg xmlns="http://www.w3.org/2000/svg" xmlns:xlink="http://www.w3.org/1999/xlink" version="1.1" width="500" height="500" viewBox="0 0 500 500" xml:space="preserve">
<desc>Created with Fabric.js 4.6.0</desc>
<defs>
</defs>
<g transform="matrix(0.54 0 0 0.54 250 250)" id="Q3ZVq8Lc7PTrkTSx0hJjG"  >
<path style="stroke: none; stroke-width: 1; stroke-dasharray: none; stroke-linecap: butt; stroke-dashoffset: 0; stroke-linejoin: miter; stroke-miterlimit: 4; fill: rgb(104,96,22); fill-rule: nonzero; opacity: 1;" vector-effect="non-scaling-stroke"  transform=" translate(-256.92, -265.78)" d="M 319 35.375 C 291.695 35.128 266.585 54.845 256.937 81.469 C 247.211 54.61299999999999 221.741 34.812999999999995 194.157 35.404999999999994 C 179.04700000000003 35.73 163.30700000000002 42.169 149.157 56.937 C 137.687 68.905 131.294 84.719 124.75000000000001 100.687 C 109.75000000000001 123.17699999999999 89.68400000000001 139.957 60.59400000000001 146.561 C 67.59400000000001 152.935 75.224 156.251 83.25 157.624 C 69.05799999999999 165.452 49.667 169.778 21.97 168.404 C 42.498 194.731 74.613 203.68599999999998 108.25 202.93599999999998 C 168.966 200.59599999999998 199.69799999999998 169.60999999999999 217.688 138.06099999999998 L 233.90599999999998 147.31099999999998 C 213.51899999999998 183.06499999999997 174.75599999999997 218.82399999999998 106.62599999999998 221.40499999999997 C 106.62399999999998 221.64499999999998 106.62599999999998 221.88499999999996 106.62599999999998 222.12499999999997 C 106.62599999999998 228.19199999999998 107.94599999999997 235.52499999999998 110.31199999999998 243.81099999999998 L 110.06199999999998 243.343 L 139.56199999999998 358.21799999999996 L 144.18699999999998 319.592 C 161.28199999999998 351.05199999999996 181.85699999999997 384.384 200.719 413.562 L 202.343 367.435 C 208.173 405.949 223.023 440.861 241.40499999999997 474.405 C 250.74199999999996 487.912 256.655 496.18499999999995 256.655 496.18499999999995 C 256.655 496.18499999999995 263.60799999999995 486.49199999999996 274.53 470.62299999999993 C 274.59999999999997 470.5229999999999 274.68199999999996 470.4099999999999 274.75 470.30999999999995 C 295.51 437.49199999999996 312.806 403.054 321.188 364.40399999999994 L 320.125 401.8419999999999 C 329.467 387.17599999999993 339.048 371.7539999999999 348.281 356.1859999999999 L 348.281 384.65399999999994 L 388.814 280.52899999999994 C 398.69100000000003 258.94399999999996 405.326 239.96699999999993 406.47 226.18699999999995 C 340.75700000000006 218.26999999999995 295.264 184.32699999999994 274.15600000000006 147.31199999999995 L 290.3760000000001 138.06199999999995 C 310.0780000000001 172.61399999999995 356.9160000000001 206.99199999999996 428.6880000000001 209.12399999999997 C 443.7730000000001 208.82399999999996 458.5930000000001 205.50099999999998 474.2810000000001 197.81099999999998 C 459.45800000000014 197.92899999999997 446.8030000000001 196.73099999999997 435.7510000000001 194.37399999999997 C 459.09100000000007 189.23799999999997 479.3270000000001 177.57899999999995 491.8760000000001 156.40399999999997 C 389.33600000000007 177.66399999999996 401.5330000000001 95.38399999999996 364.6880000000001 56.935999999999964 C 350.3180000000001 41.941999999999965 334.3180000000001 35.511999999999965 319.0010000000001 35.37399999999997 z" stroke-linecap="round" />
</g>
</svg>