<?xml version="1.0" encoding="UTF-8" standalone="no" ?>
<!DOCTYPE svg PUBLIC "-//W3C//DTD SVG 1.1//EN" "http://www.w3.org/Graphics/SVG/1.1/DTD/svg11.dtd">
<svg xmlns="http://www.w3.org/2000/svg" xmlns:xlink="http://www.w3.org/1999/xlink" version="1.1" width="500" height="500" viewBox="0 0 500 500" xml:space="preserve">
<desc>Created with Fabric.js 4.6.0</desc>
<defs>
</defs>
<g transform="matrix(0.52 0 0 0.52 299.94 282.89)" id="F_GHQe5GiEBbd1pBrVxqw"  >
<path style="stroke: none; stroke-width: 1; stroke-dasharray: none; stroke-linecap: butt; stroke-dashoffset: 0; stroke-linejoin: miter; stroke-miterlimit: 4; fill: rgb(90,66,54); fill-rule: nonzero; opacity: 1;" vector-effect="non-scaling-stroke"  transform=" translate(-318.14, -285.34)" d="M 404.198 205.738 C 403.281 205.082 402.102 204.908 401.03299999999996 205.271 C 401.03299999999996 205.271 282.02399999999994 245.748 278.77199999999993 246.86899999999997 C 276.0469999999999 247.80699999999996 274.2849999999999 245.44899999999998 274.2849999999999 245.44899999999998 L 236.8369999999999 199.195 C 235.9019999999999 198.041 234.3449999999999 197.60299999999998 232.94699999999992 198.09699999999998 C 231.55099999999993 198.59099999999998 230.61499999999992 199.91299999999998 230.61499999999992 201.396 L 230.61499999999992 369.287 C 230.61499999999992 370.455 231.19799999999992 371.54699999999997 232.17099999999994 372.197 C 232.75499999999994 372.588 233.43399999999994 372.787 234.11599999999993 372.787 C 234.56699999999992 372.787 235.02199999999993 372.69899999999996 235.45199999999994 372.52 L 403.49699999999996 303.082 C 404.80699999999996 302.541 405.65999999999997 301.264 405.65999999999997 299.848 L 405.65999999999997 208.582 C 405.66 207.456 405.116 206.397 404.198 205.738 z" stroke-linecap="round" />
</g>
<g transform="matrix(0.52 0 0 0.52 250 212.18)" id="hWYcCBt2hTlvxHb-bDzli"  >
<path style="stroke: none; stroke-width: 1; stroke-dasharray: none; stroke-linecap: butt; stroke-dashoffset: 0; stroke-linejoin: miter; stroke-miterlimit: 4; fill: rgb(90,66,54); fill-rule: nonzero; opacity: 1;" vector-effect="non-scaling-stroke"  transform=" translate(-222.09, -149.36)" d="M 443.487 168.221 L 411.41700000000003 125.362 C 410.95700000000005 124.747 410.30600000000004 124.30099999999999 409.56500000000005 124.092 L 223.141 71.456 C 222.51899999999998 71.28 221.676 71.331 221.045 71.50500000000001 L 34.62 124.141 C 33.881 124.35000000000001 33.229 124.795 32.769 125.411 L 0.698 168.271 C 0.025999999999999912 169.16899999999998 -0.17400000000000004 170.33399999999997 0.15699999999999992 171.404 C 0.48899999999999993 172.474 1.314 173.322 2.376 173.683 L 160.01500000000001 227.185 C 160.38400000000001 227.31 160.764 227.372 161.14000000000001 227.372 C 162.175 227.372 163.181 226.91000000000003 163.858 226.07600000000002 L 207.986 171.68500000000003 L 221.06799999999998 175.28500000000003 C 221.67499999999998 175.45300000000003 222.31699999999998 175.45300000000003 222.92499999999998 175.28500000000003 L 222.92499999999998 175.27700000000002 C 222.98899999999998 175.26100000000002 223.05499999999998 175.25400000000002 223.117 175.23600000000002 L 236.19899999999998 171.63600000000002 L 280.328 226.02700000000002 C 281.005 226.86100000000002 282.01099999999997 227.322 283.046 227.322 C 283.42199999999997 227.322 283.80199999999996 227.261 284.171 227.136 L 441.81 173.634 C 442.872 173.273 443.697 172.42499999999998 444.029 171.355 C 444.359 170.283 444.159 169.119 443.487 168.221 z M 222.192 160.381 L 88.501 123.856 L 222.192 86.329 L 355.68600000000004 123.80799999999999 L 222.192 160.381 z" stroke-linecap="round" />
</g>
<g transform="matrix(0.52 0 0 0.52 200.06 282.92)" id="1Z_A8LcuIRhHQoeiJNpsa"  >
<path style="stroke: none; stroke-width: 1; stroke-dasharray: none; stroke-linecap: butt; stroke-dashoffset: 0; stroke-linejoin: miter; stroke-miterlimit: 4; fill: rgb(90,66,54); fill-rule: nonzero; opacity: 1;" vector-effect="non-scaling-stroke"  transform=" translate(-126.05, -285.39)" d="M 211.238 198.147 C 209.842 197.653 208.283 198.09 207.349 199.245 L 169.901 245.5 C 169.901 245.5 168.137 247.856 165.413 246.92 C 162.161 245.79899999999998 43.153000000000006 205.322 43.153000000000006 205.322 C 42.083000000000006 204.959 40.90500000000001 205.133 39.98800000000001 205.78900000000002 C 39.07000000000001 206.447 38.526 207.50600000000003 38.526 208.63500000000002 L 38.526 299.90200000000004 C 38.526 301.31800000000004 39.38 302.59400000000005 40.689 303.13500000000005 L 208.733 372.57300000000004 C 209.163 372.75100000000003 209.618 372.83900000000006 210.06900000000002 372.83900000000006 C 210.75300000000001 372.83900000000006 211.431 372.64000000000004 212.01500000000001 372.2490000000001 C 212.98700000000002 371.5990000000001 213.57000000000002 370.50700000000006 213.57000000000002 369.33900000000006 L 213.57000000000002 201.445 C 213.57 199.963 212.635 198.641 211.238 198.147 z" stroke-linecap="round" />
</g>
</svg>