<?xml version="1.0" encoding="UTF-8" standalone="no" ?>
<!DOCTYPE svg PUBLIC "-//W3C//DTD SVG 1.1//EN" "http://www.w3.org/Graphics/SVG/1.1/DTD/svg11.dtd">
<svg xmlns="http://www.w3.org/2000/svg" xmlns:xlink="http://www.w3.org/1999/xlink" version="1.1" width="500" height="500" viewBox="0 0 500 500" xml:space="preserve">
<desc>Created with Fabric.js 4.6.0</desc>
<defs>
</defs>
<g transform="matrix(4.21 0 0 4.21 250 250)" id="U2btquO51hTV-Zwr69CgS"  >
<path style="stroke: none; stroke-width: 1; stroke-dasharray: none; stroke-linecap: butt; stroke-dashoffset: 0; stroke-linejoin: miter; stroke-miterlimit: 4; fill: rgb(19,50,82); fill-rule: nonzero; opacity: 1;" vector-effect="non-scaling-stroke"  transform=" translate(-22.99, -22.99)" d="M 43.454 18.443 L 41.017 18.443 C 40.564 16.677 39.857000000000006 15.023000000000001 38.935 13.510000000000002 L 40.687000000000005 11.754000000000001 C 41.160000000000004 11.281 41.42 10.650000000000002 41.42 9.98 C 41.42 9.311 41.158 8.679 40.687000000000005 8.207 L 37.767 5.290000000000001 C 36.82 4.3420000000000005 35.165000000000006 4.343000000000001 34.222 5.289000000000001 L 32.396 7.104000000000001 C 30.9 6.232 29.296 5.56 27.529 5.128 L 27.529 2.52 C 27.529 1.137 26.424 0 25.041 0 L 20.913 0 C 19.53 0 18.442 1.137 18.442 2.52 L 18.442 5.127000000000001 C 16.676000000000002 5.558000000000001 15.062000000000001 6.231000000000001 13.564 7.104000000000001 L 11.739 5.2890000000000015 C 10.793000000000001 4.341000000000001 9.137 4.342000000000001 8.188 5.288000000000001 L 5.27 8.205 C 4.802 8.672 4.535 9.318 4.535 9.978 C 4.535 10.647 4.7940000000000005 11.277 5.268 11.75 L 7.02 13.51 C 6.098999999999999 15.023 5.391 16.677 4.939 18.442999999999998 L 2.501 18.442999999999998 C 1.117 18.443 0 19.555 0 20.935 L 0 25.06 C 0 26.444 1.117 27.531 2.501 27.531 L 4.939 27.531 C 5.391 29.296999999999997 6.098 30.961 7.018000000000001 32.474 L 5.266000000000001 34.236999999999995 C 4.792000000000001 34.709999999999994 4.532000000000001 35.342999999999996 4.532000000000001 36.013 C 4.532000000000001 36.683 4.793000000000001 37.315999999999995 5.266000000000001 37.789 L 8.186 40.708 C 8.66 41.181 9.289 41.440999999999995 9.958 41.440999999999995 C 10.627 41.440999999999995 11.257 41.17999999999999 11.731 40.708 L 13.564 38.891999999999996 C 15.062 39.76499999999999 16.676000000000002 40.437 18.442 40.87 L 18.442 43.474 C 18.442 44.857 19.53 45.971999999999994 20.913 45.971999999999994 L 25.041 45.971999999999994 C 26.424 45.971999999999994 27.529 44.85699999999999 27.529 43.474 L 27.529 40.869 C 29.296 40.437 30.9 39.765 32.397999999999996 38.892 L 34.214999999999996 40.704 C 34.68899999999999 41.179 35.318999999999996 41.439 35.989999999999995 41.439 C 36.66 41.439 37.291 41.178 37.763999999999996 40.706 L 40.684 37.789 C 41.157 37.317 41.416 36.686 41.418 36.017 C 41.418 35.347 41.156 34.718 40.684 34.244 L 38.934 32.474 C 39.854 30.959999999999997 40.561 29.294999999999998 41.013999999999996 27.531 L 43.452 27.531 C 44.835 27.531 45.972 26.444 45.972 25.06 L 45.972 20.935 C 45.973 19.555 44.837 18.443 43.454 18.443 z M 22.976 30.85 C 18.598 30.85 15.047999999999998 27.333000000000002 15.047999999999998 22.998 C 15.047999999999998 18.66 18.598 15.148000000000001 22.976 15.148000000000001 C 27.354999999999997 15.148000000000001 30.907 18.66 30.907 22.998 C 30.906 27.334 27.355 30.85 22.976 30.85 z" stroke-linecap="round" />
</g>
</svg>