<?xml version="1.0" encoding="UTF-8" standalone="no" ?>
<!DOCTYPE svg PUBLIC "-//W3C//DTD SVG 1.1//EN" "http://www.w3.org/Graphics/SVG/1.1/DTD/svg11.dtd">
<svg xmlns="http://www.w3.org/2000/svg" xmlns:xlink="http://www.w3.org/1999/xlink" version="1.1" width="500" height="500" viewBox="0 0 500 500" xml:space="preserve">
<desc>Created with Fabric.js 4.6.0</desc>
<defs>
</defs>
<g transform="matrix(2.48 0 0 2.48 250 250)" id="oyllOrAnYGu4-7rBiT_tH"  >
<path style="stroke: none; stroke-width: 1; stroke-dasharray: none; stroke-linecap: butt; stroke-dashoffset: 0; stroke-linejoin: miter; stroke-miterlimit: 4; fill: rgb(19,82,22); fill-rule: nonzero; opacity: 1;" vector-effect="non-scaling-stroke"  transform=" translate(-46.1, -45.76)" d="M 89.6 31.5 L 47.599999999999994 12.600000000000001 C 46.49999999999999 12.100000000000001 45.3 12.100000000000001 44.3 12.600000000000001 L 2.299999999999997 31.5 C 1 32.2 0 33.5 0 35.1 C 0 36.6 1 38 2.4 38.7 L 6 40.4 L 6 54.4 C 6 55.8 7.1 56.9 8.5 56.9 C 9.9 56.9 11 55.8 11 54.4 L 11 43 L 17 46.2 L 17 63.2 C 17 63.900000000000006 17.2 64.5 17.6 65.10000000000001 C 18 65.7 27.1 79.30000000000001 45.5 79.30000000000001 C 64.4 79.30000000000001 73.1 65.60000000000001 73.5 65.10000000000001 C 73.8 64.60000000000001 74.1 63.900000000000006 74.1 63.30000000000001 L 74.1 46.7 L 90 38.6 C 91.4 37.9 92.2 36.5 92.2 35 C 92 33.5 91 32.2 89.6 31.5 z M 67 62.1 C 65 64.5 58.2 72.3 45.5 72.3 C 33.1 72.3 26 64.6 24 62.1 L 24 49.7 L 44.2 60 C 44.800000000000004 60.3 45.400000000000006 60.4 46 60.4 C 46.599999999999994 60.4 47.3 60.3 47.9 60 L 67 50.3 L 67 62.1 z M 46 52 L 13.2 35.4 L 46 20.6 L 78.8 35.400000000000006 L 46 52 z M 11 60.3 C 11.7 61 12.2 62.099999999999994 12.2 63.099999999999994 C 12.2 64.1 11.799999999999999 65.19999999999999 11 65.89999999999999 C 10.3 66.6 9.2 67.1 8.2 67.1 C 7.199999999999999 67.1 6.1 66.69999999999999 5.3999999999999995 65.89999999999999 C 4.699999999999999 65.19999999999999 4.199999999999999 64.1 4.199999999999999 63.099999999999994 C 4.199999999999999 62.099999999999994 4.6 60.99999999999999 5.3999999999999995 60.3 C 6.1 59.599999999999994 7.199999999999999 59.099999999999994 8.2 59.099999999999994 C 9.2 59.099999999999994 10.2 59.5 11 60.3 z" stroke-linecap="round" />
</g>
</svg>