<?xml version="1.0" encoding="UTF-8" standalone="no" ?>
<!DOCTYPE svg PUBLIC "-//W3C//DTD SVG 1.1//EN" "http://www.w3.org/Graphics/SVG/1.1/DTD/svg11.dtd">
<svg xmlns="http://www.w3.org/2000/svg" xmlns:xlink="http://www.w3.org/1999/xlink" version="1.1" width="500" height="500" viewBox="0 0 500 500" xml:space="preserve">
<desc>Created with Fabric.js 4.6.0</desc>
<defs>
</defs>
<g transform="matrix(4.34 0 0 4.34 250 236.92)" id="OPw-3hr9_ts1aIsOh5lml"  >
<path style="stroke: none; stroke-width: 1; stroke-dasharray: none; stroke-linecap: butt; stroke-dashoffset: 0; stroke-linejoin: miter; stroke-miterlimit: 4; fill: rgb(70,15,75); fill-rule: nonzero; opacity: 1;" vector-effect="non-scaling-stroke"  transform=" translate(-22.87, -22.87)" d="M 34.199 3.83 C 30.255 3.83 26.770999999999997 5.8100000000000005 24.689 8.827 C 24.689 8.827 23.986 9.879 22.871 9.879 C 21.756999999999998 9.879 21.054 8.827 21.054 8.827 C 18.970999999999997 5.8100000000000005 15.488999999999997 3.83 11.543999999999999 3.83 C 5.168 3.83 0 8.998 0 15.376 C 0 16.881999999999998 0.296 18.314999999999998 0.82 19.634 C 4.054 29.676000000000002 18.518 41.482 22.871 41.913 C 27.224999999999998 41.482 41.687 29.675999999999995 44.923 19.633999999999997 C 45.447 18.315999999999995 45.743 16.881999999999998 45.743 15.375999999999998 C 45.743 8.998 40.575 3.83 34.199 3.83 z" stroke-linecap="round" />
</g>
</svg>