<?xml version="1.0" encoding="UTF-8" standalone="no" ?>
<!DOCTYPE svg PUBLIC "-//W3C//DTD SVG 1.1//EN" "http://www.w3.org/Graphics/SVG/1.1/DTD/svg11.dtd">
<svg xmlns="http://www.w3.org/2000/svg" xmlns:xlink="http://www.w3.org/1999/xlink" version="1.1" width="500" height="500" viewBox="0 0 500 500" xml:space="preserve">
<desc>Created with Fabric.js 4.6.0</desc>
<defs>
</defs>
<g transform="matrix(0.42 0 0 0.42 250 250)" id="QoCdlBphhy66PoADxQ9FT"  >
<path style="stroke: none; stroke-width: 1; stroke-dasharray: none; stroke-linecap: butt; stroke-dashoffset: 0; stroke-linejoin: miter; stroke-miterlimit: 4; fill: rgb(92,20,20); fill-rule: nonzero; opacity: 1;" vector-effect="non-scaling-stroke"  transform=" translate(-223.69, -223.69)" d="M 446.682 206.693 C 435.90500000000003 198.98100000000002 398.259 177.66400000000002 344.366 208.478 C 337.83799999999997 212.21200000000002 329.52 209.94400000000002 325.787 203.417 C 322.054 196.889 324.32 188.571 330.84799999999996 184.838 C 343.51399999999995 177.596 355.53299999999996 172.757 366.74999999999994 169.679 C 339.03399999999993 143.417 334.679 115.242 334.4699999999999 113.771 L 361.4299999999999 109.936 L 361.4129999999999 109.819 C 361.6249999999999 111.142 367.0589999999999 142.48000000000002 405.7579999999999 164.946 C 405.9609999999999 165.064 406.1479999999999 165.19899999999998 406.3429999999999 165.326 C 415.0119999999999 165.831 422.6939999999999 167.263 429.2119999999999 169.046 C 435.3779999999999 170.733 440.8599999999999 172.79899999999998 445.6339999999999 174.956 C 453.8229999999999 136.362 430.5739999999999 101.67499999999998 396.40199999999993 89.28799999999998 C 394.2939999999999 88.52699999999999 393.2729999999999 87.39099999999998 392.46899999999994 85.28899999999999 C 381.8569999999999 57.05299999999998 361.1839999999999 40.533999999999985 331.9939999999999 34.69299999999999 C 324.3359999999999 33.16599999999999 316.2799999999999 33.64799999999999 308.3939999999999 33.41099999999999 C 306.6139999999999 33.356999999999985 305.4519999999999 32.99899999999999 304.2299999999999 31.659999999999986 C 274.0829999999999 -1.4830000000000148 224.13299999999992 -5.166000000000015 189.55299999999988 22.743999999999986 C 194.35099999999989 31.700999999999986 197.79099999999988 40.453999999999986 199.86199999999988 48.97699999999999 C 203.8049999999999 58.65099999999999 225.23399999999987 104.82799999999999 285.66199999999986 136.17899999999997 C 292.3369999999999 139.64199999999997 294.94099999999986 147.86099999999996 291.47799999999984 154.53499999999997 C 289.05499999999984 159.20499999999996 284.30199999999985 161.88299999999998 279.38099999999986 161.88299999999998 C 277.26899999999983 161.88299999999998 275.12599999999986 161.39 273.12199999999984 160.35 C 235.72799999999984 140.95 211.42899999999986 116.63799999999999 196.17499999999984 96.32799999999999 C 188.13799999999983 114.13799999999999 172.15499999999983 129.295 148.48199999999986 141.507 C 146.48599999999985 142.537 144.35299999999987 143.025 142.25099999999986 143.025 C 137.31699999999987 143.025 132.55699999999987 140.336 130.13899999999987 135.649 C 126.69099999999987 128.966 129.31399999999988 120.754 135.99699999999987 117.306 C 157.63099999999986 106.145 170.38299999999987 92.786 173.8989999999999 77.59899999999999 C 175.50399999999988 70.66299999999998 175.1549999999999 63.49299999999999 173.5559999999999 56.43499999999999 C 173.4409999999999 56.11099999999999 173.3639999999999 55.88199999999999 173.3259999999999 55.76999999999999 C 173.0529999999999 54.94399999999999 172.8709999999999 54.10999999999999 172.7599999999999 53.27799999999999 C 169.4329999999999 41.36099999999999 162.7819999999999 29.92299999999999 156.1809999999999 20.660999999999994 C 125.8669999999999 18.214999999999993 97.6819999999999 26.628999999999994 72.0229999999999 47.053 C 54.477999999999895 61.031 42.78699999999989 79.18299999999999 36.8269999999999 100.886 C 36.2329999999999 103.044 35.0339999999999 104.271 33.303999999999895 105.487 C 10.992999999999896 121.39699999999999 -0.843000000000103 142.82999999999998 0.04699999999989757 170.492 C 0.5709999999998976 187.05499999999998 6.784999999999898 201.666 17.398999999999898 214.362 C 18.513999999999896 215.689 19.135999999999896 216.822 18.703999999999898 218.668 C 11.803999999999897 249.002 25.4059999999999 278.873 49.9019999999999 295.93600000000004 C 54.875999999999905 301.54900000000004 60.2719999999999 306.802 66.06399999999991 311.64000000000004 C 56.997999999999905 334.19500000000005 43.29899999999991 368.76900000000006 40.48499999999991 378.64000000000004 C 40.296999999999905 379.30100000000004 40.064999999999905 380.04800000000006 39.811999999999905 380.87000000000006 C 38.0749999999999 386.50700000000006 35.4499999999999 395.02500000000003 35.677999999999905 404.40700000000004 C 36.0139999999999 418.24500000000006 42.67699999999991 429.40100000000007 54.436999999999905 435.81800000000004 C 63.683999999999905 440.86400000000003 72.57699999999991 443.31700000000006 81.6259999999999 443.31700000000006 L 81.62699999999991 443.31700000000006 C 98.44499999999991 443.31700000000006 112.26499999999992 434.3380000000001 121.19699999999992 427.58500000000004 C 133.1939999999999 418.51200000000006 143.36899999999991 407.47700000000003 153.20899999999992 396.80500000000006 C 158.49999999999991 391.06700000000006 163.4979999999999 385.64700000000005 168.63999999999993 380.65900000000005 L 174.12599999999992 375.345 C 186.5159999999999 363.35200000000003 199.29599999999994 350.98 211.49499999999992 338.11400000000003 C 222.4089999999999 334.29900000000004 232.7899999999999 329.23800000000006 242.4689999999999 323.062 C 262.4519999999999 324.803 281.6479999999999 319.08 300.0159999999999 305.766 C 300.8809999999999 305.137 301.7049999999999 304.45000000000005 302.5199999999999 303.75300000000004 C 296.3179999999999 300.06200000000007 289.4559999999999 297.19300000000004 283.24499999999995 295.04200000000003 C 283.203 295.028 283.16299999999995 295.01300000000003 283.1209999999999 294.999 C 272.57899999999995 291.235 257.3399999999999 284.82300000000004 246.76899999999992 272.65900000000005 C 237.92299999999992 262.48100000000005 229.34199999999993 244.61700000000005 238.6899999999999 217.31100000000004 C 241.12599999999992 210.19700000000003 248.8659999999999 206.40600000000003 255.9819999999999 208.84000000000003 C 263.0959999999999 211.27600000000004 266.8889999999999 219.01800000000003 264.4529999999999 226.13200000000003 C 257.1499999999999 247.46100000000004 264.93499999999995 259.576 292.2209999999999 269.33200000000005 C 317.0209999999999 277.93100000000004 333.8969999999999 290.1120000000001 342.57299999999987 305.63800000000003 C 364.36199999999985 307.41100000000006 384.73699999999985 300.58700000000005 403.5959999999999 284.939 C 404.7519999999999 283.983 406.04899999999986 283.153 407.3569999999999 282.406 C 429.4219999999999 269.803 443.1269999999999 251.30100000000002 446.7089999999999 225.92700000000002 C 447.63 219.439 447.583 213.022 446.682 206.693 z M 151.396 351.866 L 145.88799999999998 357.20099999999996 C 140.08999999999997 362.82399999999996 134.545 368.83799999999997 129.183 374.65399999999994 C 119.90899999999999 384.71199999999993 111.149 394.21099999999996 101.48499999999999 401.5199999999999 C 93.14399999999999 407.82699999999994 87.01899999999999 410.6389999999999 81.62499999999999 410.6389999999999 C 78.18599999999998 410.6389999999999 74.41299999999998 409.4919999999999 70.08899999999998 407.1329999999999 C 68.93499999999999 406.5039999999999 68.40799999999999 406.21599999999995 68.34499999999998 403.61299999999994 C 68.24599999999998 399.55699999999996 69.86099999999999 394.3179999999999 71.03999999999998 390.49299999999994 C 71.36799999999998 389.42799999999994 71.66599999999998 388.45599999999996 71.90999999999998 387.59999999999997 C 73.72299999999998 381.239 83.53399999999998 355.739 97.31499999999998 321.51 C 100.14599999999999 321.888 103.02999999999999 322.103 105.96399999999998 322.103 C 117.23499999999999 322.103 127.82899999999998 319.211 137.05499999999998 314.139 C 144.712 324.23 155.26699999999997 331.992 167.48099999999997 336.207 C 162.111 341.489 156.718 346.715 151.396 351.866 z M 173.938 243.876 C 172.331 244.284 164.07299999999998 246.238 153.694 246.239 C 144.10799999999998 246.24 132.713 244.573 123.07 238.478 C 113.494 232.42700000000002 107.201 223.00400000000002 104.87199999999999 211.23000000000002 C 104.15199999999999 207.591 102.61499999999998 205.17100000000002 99.88699999999999 203.38500000000002 C 91.80399999999999 198.09000000000003 75.82899999999998 199.30400000000003 69.35999999999999 200.72100000000003 C 61.34399999999999 202.48100000000002 53.42599999999999 197.40300000000002 51.670999999999985 189.39000000000004 C 49.914999999999985 181.37600000000003 54.98899999999998 173.45600000000005 63.002999999999986 171.70100000000005 C 66.27999999999999 170.98200000000006 95.61999999999998 165.07500000000005 116.16699999999999 178.53400000000005 C 125.579 184.69900000000004 131.75099999999998 194.01200000000006 134.017 205.46600000000004 C 134.977 210.31500000000003 137.153 212.23400000000004 138.942 213.36400000000003 C 147.13500000000002 218.54200000000003 162.871 216.03400000000002 166.636 215.08000000000004 C 174.58599999999998 213.05900000000005 182.66899999999998 217.87500000000003 184.686 225.82700000000006 C 186.702 233.779 181.89 241.86 173.938 243.876 z" stroke-linecap="round" />
</g>
</svg>