<?xml version="1.0" encoding="UTF-8" standalone="no" ?>
<!DOCTYPE svg PUBLIC "-//W3C//DTD SVG 1.1//EN" "http://www.w3.org/Graphics/SVG/1.1/DTD/svg11.dtd">
<svg xmlns="http://www.w3.org/2000/svg" xmlns:xlink="http://www.w3.org/1999/xlink" version="1.1" width="500" height="500" viewBox="0 0 500 500" xml:space="preserve">
<desc>Created with Fabric.js 4.6.0</desc>
<defs>
</defs>
<g transform="matrix(0.45 0 0 0.45 250 250)" id="W48BAOWFyoNhKiCrVvwj8"  >
<path style="stroke: none; stroke-width: 1; stroke-dasharray: none; stroke-linecap: butt; stroke-dashoffset: 0; stroke-linejoin: miter; stroke-miterlimit: 4; fill: rgb(143,83,5); fill-rule: nonzero; opacity: 1;" vector-effect="non-scaling-stroke"  transform=" translate(-244, -244)" d="M 478.098 448.498 L 158.332 448.498 L 64.313 297.583 C 74.415 290.182 81.016 278.18100000000004 81.016 264.78000000000003 C 81.016 251.47900000000004 74.61500000000001 239.67800000000003 64.813 232.27700000000004 L 188.439 60.359 L 235.44899999999998 60.359 C 234.04899999999998 72.26 236.94899999999998 86.662 244.65099999999998 97.963 L 237.64999999999998 104.16399999999999 C 235.14999999999998 106.36399999999999 233.94899999999998 109.76499999999999 234.44899999999998 113.06499999999998 L 255.053 256.279 C 255.553 259.879 258.054 262.88 261.454 264.18 C 262.55400000000003 264.58 263.754 264.78000000000003 264.955 264.78000000000003 C 267.256 264.78000000000003 269.656 263.98 271.45599999999996 262.38000000000005 L 474.597 88.562 C 477.298 86.262 478.498 82.761 477.998 79.261 C 477.39799999999997 75.761 474.997 72.86 471.79699999999997 71.66 L 339.67 20.355 C 336.16900000000004 18.955000000000002 332.168 19.755 329.368 22.255 L 317.266 33.056 C 306.464 23.455 291.961 18.254999999999995 278.458 19.754999999999995 C 264.055 21.254999999999995 251.25200000000004 28.955999999999996 243.25100000000003 40.357 L 183.23900000000003 40.357 C 180.03800000000004 40.357 177.03800000000004 41.857 175.13700000000003 44.557 L 45.809 224.576 C 44.108999999999995 224.376 42.308 224.176 40.507999999999996 224.176 C 18.104 224.176 0 242.377 0 264.78 C 0 287.18199999999996 18.204 305.38399999999996 40.508 305.38399999999996 C 42.208000000000006 305.38399999999996 43.809000000000005 305.28399999999993 45.409000000000006 305.08399999999995 L 134.727 448.49799999999993 L 10.702 448.49799999999993 C 5.201 448.49799999999993 0.6999999999999993 452.99799999999993 0.6999999999999993 458.4989999999999 C 0.6999999999999993 463.9989999999999 5.201 468.4999999999999 10.702 468.4999999999999 L 152.731 468.4999999999999 L 477.998 468.4999999999999 C 483.49899999999997 468.4999999999999 488 463.9999999999999 488 458.4989999999999 C 488 452.998 483.599 448.498 478.098 448.498 z M 256.653 57.459 C 256.653 57.359 256.75300000000004 57.359 256.75300000000004 57.259 C 260.754 47.458 269.85600000000005 40.757000000000005 280.658 39.657 L 280.658 39.657 C 287.85900000000004 38.857 295.861 41.556999999999995 302.262 46.55799999999999 L 259.853 84.46199999999999 C 254.852 75.661 253.752 64.16 256.653 57.459 z M 265.354 106.264 L 323.26599999999996 54.559 L 338.169 41.257999999999996 L 448.99199999999996 84.262 L 272.356 235.377 L 255.052 115.465 L 265.354 106.264 z M 40.508 285.382 C 29.206000000000003 285.382 20.004 276.081 20.004 264.78000000000003 C 20.004 253.37900000000002 29.206000000000003 244.17800000000003 40.508 244.17800000000003 C 51.81 244.17800000000003 61.012 253.479 61.012 264.78000000000003 C 61.013 276.181 51.811 285.382 40.508 285.382 z" stroke-linecap="round" />
</g>
</svg>