<?xml version="1.0" encoding="UTF-8" standalone="no" ?>
<!DOCTYPE svg PUBLIC "-//W3C//DTD SVG 1.1//EN" "http://www.w3.org/Graphics/SVG/1.1/DTD/svg11.dtd">
<svg xmlns="http://www.w3.org/2000/svg" xmlns:xlink="http://www.w3.org/1999/xlink" version="1.1" width="500" height="500" viewBox="0 0 500 500" xml:space="preserve">
<desc>Created with Fabric.js 4.6.0</desc>
<defs>
</defs>
<g transform="matrix(12.18 0 0 12.18 250 236.92)" id="xP0rZ56P0FLdTrCbUZO2L"  >
<path style="stroke: none; stroke-width: 1; stroke-dasharray: none; stroke-linecap: butt; stroke-dashoffset: 0; stroke-linejoin: miter; stroke-miterlimit: 4; fill: rgb(46,59,132); fill-rule: nonzero; opacity: 1;" vector-effect="non-scaling-stroke"  transform=" translate(-8.16, -8.16)" d="M 11.253 0.107 C 11.56 1.079 10.955 3.8270000000000004 10.616 4.296 L 10.758 4.433 L 8.209 6.983 C 8.206 6.985 8.205 6.986 8.203 6.988 C 8.203 6.988 8.202 6.99 8.200999999999999 6.99 L 7.118 8.073 L 6.563 7.519 L 6.616 7.466 C 6.673 7.409 6.647 7.29 6.559 7.203 C 6.471 7.114 6.352 7.089 6.295 7.147 L 5.699 7.742 C 5.641 7.799 5.667 7.918 5.755 8.005 C 5.844 8.094 5.962 8.119 6.02 8.063 L 6.0729999999999995 8.01 L 6.627999999999999 8.565 L 6.181 9.011 L 5.626 8.457 L 5.674 8.408000000000001 C 5.731000000000001 8.351 5.706 8.232000000000001 5.618 8.143 C 5.528 8.056 5.41 8.031 5.353 8.087 L 4.757 8.682 C 4.7 8.741 4.725 8.859 4.813 8.947 C 4.901 9.034 5.02 9.061 5.077 9.003 L 5.133 8.947000000000001 L 5.688 9.501000000000001 L 5.264 9.925 L 4.709 9.371 L 4.762 9.318 C 4.819 9.261 4.794 9.142 4.7059999999999995 9.054 C 4.617999999999999 8.966000000000001 4.498 8.941 4.442 8.998 L 3.846 9.594 C 3.788 9.651 3.814 9.77 3.902 9.857 C 3.991 9.946 4.109 9.971 4.167 9.914 L 4.22 9.860999999999999 L 4.774 10.415999999999999 L 3.963 11.226999999999999 C 3.935 11.253999999999998 3.911 11.284999999999998 3.89 11.315999999999999 C 3.859 11.337 3.829 11.361999999999998 3.801 11.387999999999998 C 3.765 11.424 3.733 11.463 3.7 11.5 L 3.696 11.496 L 0.6520000000000001 14.540000000000001 C 0.5590000000000002 14.469000000000001 0.42600000000000016 14.472000000000001 0.34200000000000014 14.558000000000002 C 0.2500000000000001 14.650000000000002 0.2500000000000001 14.8 0.34200000000000014 14.894000000000002 L 1.3 15.852 C 1.3920000000000001 15.944 1.5430000000000001 15.944 1.6360000000000001 15.852 C 1.7280000000000002 15.76 1.7280000000000002 15.609 1.6360000000000001 15.515 L 1.533 15.42 L 3.003 13.95 C 3.104 14.508 3.369 15.042 3.7990000000000004 15.472 C 4.91 16.583 6.705 16.594 7.835 15.514 L 7.835 15.517 C 7.84 15.511999999999999 7.844 15.504999999999999 7.849 15.498999999999999 C 7.86 15.488999999999999 7.87 15.480999999999998 7.881 15.472 C 7.906000000000001 15.447 7.9270000000000005 15.418999999999999 7.948 15.389999999999999 C 7.953 15.384999999999998 7.956 15.382 7.963 15.374999999999998 C 7.99 15.354999999999999 8.017 15.333999999999998 8.043 15.310999999999998 L 8.046 15.292999999999997 C 8.779 14.566999999999997 12.261 11.091999999999999 12.285 11.066999999999997 C 13.409 9.942999999999996 13.409 8.110999999999997 12.285 6.9869999999999965 C 11.871 6.573999999999996 11.362 6.312999999999996 10.827 6.203999999999996 L 11.69 5.340999999999996 L 11.854 5.501999999999995 C 12.378 5.162999999999995 14.896999999999998 4.472999999999995 15.895999999999999 4.976999999999995 C 17.063 5.081 10.944 -0.864 11.253 0.107 z M 10.642 10.874 C 9.885 11.634 8.805 12.718 8.791 12.74 C 8.761000000000001 12.761000000000001 8.702 12.813 8.702 12.813 L 8.445 13.078000000000001 L 8.435 13.088000000000001 L 7.925000000000001 13.597000000000001 C 7.57 13.873000000000001 7.056000000000001 13.854000000000001 6.73 13.526000000000002 C 6.376 13.173000000000002 6.377000000000001 12.596000000000002 6.73 12.244000000000002 C 6.747000000000001 12.227000000000002 8.191 10.779000000000002 8.204 10.762000000000002 C 8.222000000000001 10.749000000000002 8.255 10.720000000000002 8.255 10.720000000000002 L 8.401000000000002 10.568000000000003 L 8.407000000000002 10.563000000000002 L 9.002000000000002 9.967000000000002 L 9.008 9.96 L 9.158999999999999 9.814 C 9.158999999999999 9.814 9.188999999999998 9.781 9.200999999999999 9.762 C 9.219 9.75 9.235 9.738 9.251 9.722 C 9.604999999999999 9.368 10.181 9.368 10.535 9.722 C 10.848 10.035 10.883 10.521 10.642 10.874 z M 11.364 7.909 C 11.931000000000001 8.475 11.971 9.366 11.497 9.987 C 11.43 9.697000000000001 11.288 9.421 11.062 9.195 C 10.427 8.56 9.398 8.553 8.751999999999999 9.173 L 8.751999999999999 9.17 C 8.748 9.172 8.747 9.176 8.744 9.178 C 8.737 9.185 8.731 9.189 8.725 9.195 C 8.71 9.211 8.698 9.226 8.687 9.243 C 8.684 9.246 8.682 9.248 8.679 9.25 C 8.662 9.262 8.647 9.273 8.633 9.287 L 8.632 9.297 C 8.212 9.713000000000001 6.22 11.701 6.205 11.716000000000001 C 5.561 12.359000000000002 5.561 13.408000000000001 6.205 14.051000000000002 C 6.438 14.284000000000002 6.727 14.433000000000002 7.03 14.497000000000002 C 7.006 14.515000000000002 6.981 14.531000000000002 6.96 14.553 C 6.342 15.172 5.337 15.172 4.718999999999999 14.553 C 4.1 13.934000000000001 4.1 12.929 4.718999999999999 12.311 C 4.72 12.31 4.72 12.31 4.720999999999999 12.309 L 4.880999999999999 12.149 L 5.1419999999999995 11.888 L 8.702 8.328 L 8.963 8.065999999999999 L 9.123 7.906999999999999 C 9.123999999999999 7.905999999999999 9.125 7.905999999999999 9.125 7.904999999999999 C 9.739 7.29 10.745 7.29 11.364 7.909 z" stroke-linecap="round" />
</g>
</svg>